# xmcd
#
# Track frame offsets: 
#        150
#        11147
#        23017
#        33685
#        46595
#        58397
#        70255
#        80730
#        90520
#        101815
#        115145
#        125780
#
# Disc length: 1835 seconds
#
# Revision: 3
# Processed by: cddbd v1.5.2PL0 Copyright (c) Steve Scherf et al.
# Submitted via: ExactAudioCopy v1.0b4
#
DISCID=a407290c
DTITLE=Luiz Gonzaga - São João do Araripe
DYEAR=2000
DGENRE=Forró Pé de Serra
TTITLE0=Madruceu o Milho
TTITLE1=Vitória de Santo Antão
TTITLE2=Mazurca
TTITLE3=A Cheia de 24
TTITLE4=De juazeiro a Crato
TTITLE5=O Andarilho
TTITLE6=Lenha Verde
TTITLE7=Côco Xeem
TTITLE8=Manduquinha
TTITLE9=Meu Araripe
TTITLE10=Rosa do Mearim
TTITLE11=Anita do Cipó
EXTD=Dayvison DJ - Recife - PE\ndayvisondj@hotmail.com
EXTT0=
EXTT1=
EXTT2=
EXTT3=
EXTT4=
EXTT5=
EXTT6=
EXTT7=
EXTT8=
EXTT9=
EXTT10=
EXTT11=
PLAYORDER=
